<svg id="Group_44" data-name="Group 44" xmlns="http://www.w3.org/2000/svg" xmlns:xlink="http://www.w3.org/1999/xlink" width="50" height="54.438" viewBox="0 0 50 54.438">
  <defs>
    <clipPath id="clip-path">
      <rect id="Rectangle_150" data-name="Rectangle 150" width="50" height="54.438" fill="none"/>
    </clipPath>
  </defs>
  <g id="Group_43" data-name="Group 43" transform="translate(0 0)" clip-path="url(#clip-path)">
    <path id="Path_244" data-name="Path 244" d="M44.812,54.438H5.189A5.188,5.188,0,0,1,0,49.25V5.188A5.188,5.188,0,0,1,5.189,0H44.812A5.187,5.187,0,0,1,50,5.188V49.25a5.187,5.187,0,0,1-5.188,5.188" transform="translate(0 0)" fill="#0d2888"/>
    <path id="Path_245" data-name="Path 245" d="M31.975,11.241A17.359,17.359,0,0,0,23.439,13.4a11.177,11.177,0,0,0-8.931-4.617,1.53,1.53,0,0,0-1.472,1.472,1.386,1.386,0,0,0,1.472,1.355A8.726,8.726,0,0,1,21.2,15.027c-6.448,5.627-8.749,14.789-8.749,21.52,0,10.938,4.656,12.571,7.431,12.571,5.268,0,8.54-6.519,8.54-17.011,0-6.391-1.18-12.165-3.326-16.285a13.784,13.784,0,0,1,6.878-1.755c4.8,0,8.285,3.189,8.285,7.583,0,4.733-4.593,7.591-7.774,7.758a1.4,1.4,0,0,0-1.4,1.355,1.452,1.452,0,0,0,1.471,1.53c3.82,0,10.644-3.557,10.644-10.643,0-6.032-4.722-10.409-11.228-10.409M25.421,32.631c-.109,8.017-2.414,13.836-5.48,13.836-3.139,0-4.545-4.982-4.545-9.919,0-6.149,2.239-14.376,7.238-19.035,1.864,3.659,2.852,9.014,2.788,15.118" transform="translate(-0.958 -0.676)" fill="#fff"/>
  </g>
</svg>
