<svg xmlns="http://www.w3.org/2000/svg" width="273" height="49" viewBox="0 0 273 49">
  <g id="Group_116" data-name="Group 116" transform="translate(-55 -32)">
    <path id="Exclusion_4" data-name="Exclusion 4" d="M22.5,45A22.5,22.5,0,0,1,6.59,6.59,22.5,22.5,0,1,1,38.41,38.41,22.353,22.353,0,0,1,22.5,45Zm.758-16.714a6.807,6.807,0,0,1,.877.056c2.992.408,5.267,1.6,6.58,3.45a40.678,40.678,0,0,1-1.47-15.331,28.439,28.439,0,0,0,1.318-2.687c-.45.915-2.026,3.041-6.885,3.041a22.231,22.231,0,0,1-3.758-.354c-2.665-1.611-4.337-2.64-4.407-2.683V31.791a.061.061,0,0,1,.011-.011,16.042,16.042,0,0,1,2.335-1.74A10.8,10.8,0,0,1,23.258,28.286Z" transform="translate(55 35)" fill="#fff"/>
    <text id="大三興業株式会社" transform="translate(110 74)" fill="#fff" font-size="26" font-family="RyuminPro-Regular, A-OTF Ryumin Pro KL" letter-spacing="0.05em"><tspan x="0" y="0">大三興業株式会社</tspan></text>
    <text id="紙管紙器製造加工" transform="translate(110 44)" fill="#fff" font-size="10" font-family="RyuminPro-Regular, A-OTF Ryumin Pro KL" letter-spacing="0.02em"><tspan x="0" y="0">紙管紙器製造加工</tspan></text>
  </g>
</svg>
