<svg xmlns="http://www.w3.org/2000/svg" width="60" height="60" viewBox="0 0 60 60">
  <path id="Subtraction_1" data-name="Subtraction 1" d="M30,60A30.008,30.008,0,0,1,18.323,2.358,30.008,30.008,0,0,1,41.678,57.642,29.812,29.812,0,0,1,30,60Zm.362-21.435a9.1,9.1,0,0,1,1.171.075,16.051,16.051,0,0,1,5.094,1.5,9.974,9.974,0,0,1,3.688,3.1c-2.045-7.7-2.7-14.586-1.961-20.463a38.114,38.114,0,0,0,1.758-3.587c-.6,1.221-2.7,4.059-9.19,4.059a29.676,29.676,0,0,1-5.018-.472c-3.568-2.158-5.79-3.523-5.883-3.58V43.242a.065.065,0,0,1,.012-.013A21.226,21.226,0,0,1,23.153,40.9,14.419,14.419,0,0,1,30.362,38.565Z" fill="#013480"/>
</svg>
