<svg xmlns="http://www.w3.org/2000/svg" width="339.904" height="243.48" viewBox="0 0 339.904 243.48">
  <g id="Group_369" data-name="Group 369" transform="translate(-793.8 -1188.104)">
    <path id="Path_4054" data-name="Path 4054" d="M48.952,10.44c1.392,0,1.856-.928,2.32-1.624C76.56-42.456,117.624-105.328,150.8-161.7c1.856-3.016,2.32-4.64,2.32-7.424v-6.728c0-1.392-1.16-4.176-3.712-4.176H90.248c-17.632,0-54.288-.7-69.368-.7a3.283,3.283,0,0,0-3.48,3.48v.464a106.206,106.206,0,0,1,.7,12.3,93.7,93.7,0,0,1-.928,14.384v.464a2.262,2.262,0,0,0,2.552,2.32h1.16c13.92-2.552,53.128-3.248,68.208-3.248H120.64c-19.952,34.8-57.768,99.76-94.888,154.744C24.592,6.032,23.9,7.192,23.9,8.12c0,1.392.928,1.856,2.784,1.856h1.16c2.784-.232,6.032-.464,9.512-.464a52.239,52.239,0,0,1,10.672.928Z" transform="translate(782 1411)" fill="#ffad03"/>
    <path id="Path_4053" data-name="Path 4053" d="M131.544-153.12c2.32,0,3.48-1.392,3.48-3.944,0-8.352,1.624-12.992,4.408-24.36v-.7c0-1.392-.928-2.088-2.32-2.088-.464,0-.928.232-1.392.232-13.92,2.552-53.592,3.944-68.672,3.944H36.888c-2.32,0-4.176,1.16-4.408,3.48-2.088,33.176-7.192,74.472-9.512,88.392v.7c0,2.784,3.248,4.408,6.032,4.408a3.815,3.815,0,0,0,2.32-.464c9.512-6.032,23.9-10.672,38.048-10.672,29.7,0,42.224,17.632,42.224,40.6,0,6.5-.928,49.648-48.952,49.648-17.4,0-30.856-10.44-39.44-21.344-1.392-1.856-3.016-2.784-3.944-2.784s-1.624.7-1.624,2.552C17.4-15.312,16.7-10.44,14.848-6.5a4.3,4.3,0,0,0-.464,1.624,4.086,4.086,0,0,0,1.16,3.016c15.08,9.976,35.5,15.544,51.272,15.544,51.5,0,83.056-25.056,83.056-64.728,0-40.368-31.552-60.088-67.744-60.088h-.7c-9.048,0-24.824,2.088-37.584,6.032l6.264-48.024Z" transform="translate(914 1412)" fill="#ffad03"/>
    <path id="Path_4056" data-name="Path 4056" d="M24.64-2.24a21.063,21.063,0,0,1-4.288.64c-3.008,0-4.16-1.408-4.16-3.968V-29.824c1.344,0,3.648.064,8.384.192.576,0,.9-.128.9-.576a.7.7,0,0,0-.064-.32,8.711,8.711,0,0,1-.128-1.344,10.5,10.5,0,0,1,.128-1.472V-33.6c0-.448-.256-.576-.832-.576-4.224.064-6.848.128-8.384.128.064-4.032.256-8,.384-12.032,0-.32-.576-.768-.96-.768-.064,0-.064.064-.128.064a16.717,16.717,0,0,1-7.3,2.432.815.815,0,0,0-.7.7l.256,9.6c-.9,0-2.368-.064-5.824-.128-.512,0-.7.128-.7.512a.951.951,0,0,0,.064.384,4.991,4.991,0,0,1,.192,1.408,4.127,4.127,0,0,1-.192,1.28.951.951,0,0,0-.064.384c0,.384.192.576.7.576,2.5-.128,4.608-.192,5.824-.192V-5.632c0,4.032.768,9.216,9.28,9.216a18.159,18.159,0,0,0,8.384-2.048,1.484,1.484,0,0,0,.448-1.28c0-1.152-.448-2.5-1.088-2.5ZM64,2.88a.763.763,0,0,0,.7-.768c-.064-4.672-.32-7.616-.32-13.7v-7.744c0-9.984-3.9-15.3-13.44-15.3-4.992,0-9.28,2.24-11.264,5.248v-6.976c0-7.04.192-11.84.32-16.7,0-.32-.128-.64-.576-.64h-.256A37.974,37.974,0,0,1,32.7-52.672a4.844,4.844,0,0,1-.96-.064h-.128a.767.767,0,0,0-.768.64c.128,4.992.32,8.64.32,15.68v24.832c0,6.144-.192,9.472-.32,13.824a.767.767,0,0,0,.768.64h.128a23.466,23.466,0,0,1,3.9-.256,18.422,18.422,0,0,1,3.52.256h.256c.448,0,.576-.32.576-.64-.128-5.12-.32-7.68-.32-13.824v-9.6c0-4.864,4.672-8.7,8.832-8.7,6.208,0,7.424,3.84,7.424,11.648v6.656c0,6.144-.256,9.408-.32,13.76a.71.71,0,0,0,.7.7h.128a36.181,36.181,0,0,1,3.776-.256,33.814,33.814,0,0,1,3.712.256Z" transform="translate(1069 1428)" fill="#ffad03"/>
    <path id="Path_4055" data-name="Path 4055" d="M12.36-.912c-.288,0-.528.7-.528,1.152,0,.192.024.336.144.384a8.379,8.379,0,0,0,3.144.6c4.08,0,7.368-3.024,7.368-6.1,0-4.224-3.768-6.288-8.52-6.288a18.72,18.72,0,0,0-3.168.288v-3.24c1.176.024,3.48.144,3.744.168h.024a.152.152,0,0,0,.168-.168,1.238,1.238,0,0,0-.048-.264,1.259,1.259,0,0,1-.048-.432,4.342,4.342,0,0,1,.048-.6,1.238,1.238,0,0,0,.048-.264c0-.1-.024-.168-.12-.168h-.048c-.168.048-2.472.216-3.768.216v-3.5c0-.216-.048-.336-.24-.336a1.18,1.18,0,0,0-.408.1,5.682,5.682,0,0,1-2.136.384c-.264,0-.408,0-.408.336,0,1.7.024,2.112.024,3.024h-.48c-1.08,0-3.816-.12-4.08-.192a.422.422,0,0,0-.144-.024c-.12,0-.168.048-.168.144a2.985,2.985,0,0,0,.1.384,2.476,2.476,0,0,1,.048.48,2.941,2.941,0,0,1-.048.456,1.021,1.021,0,0,0-.048.264.152.152,0,0,0,.168.168h.1c.264-.048,3.72-.144,4.08-.144h.48V-10.2C4.512-9.12,1.8-5.88,1.8-3.576A5.342,5.342,0,0,0,7.44,1.176C9.888,1.176,10.8,0,10.8-2.256V-9.384a16.281,16.281,0,0,1,2.424-.264c3.7.024,5.664,1.632,5.664,4.608A4.615,4.615,0,0,1,14.256-.6a5.852,5.852,0,0,1-1.848-.312ZM7.7-2.952c0,.84-.36,1.32-.936,1.32-.7,0-2.544-.648-2.544-2.376A5.855,5.855,0,0,1,7.7-8.592Zm14.184-8.976c.1,0,.168-.144.192-.5a4.949,4.949,0,0,1,.792-2.5.968.968,0,0,0,.168-.384c0-.456-2.232-1.248-5.016-1.248a14.157,14.157,0,0,0-1.992.144c-.192.024-.312.48-.312.84,0,.288.072.5.24.528a9.08,9.08,0,0,1,5.568,2.856C21.648-12.072,21.768-11.928,21.888-11.928Zm15.7-6.36a5.344,5.344,0,0,0,.216-.768c0-.12-.072-.216-.264-.216-.024,0-.1.024-.144.024a13.349,13.349,0,0,1-2.064.216c-.12,0-.24-.024-.312-.024a2.073,2.073,0,0,0-.36-.024c-.336,0-.288.168-.384.7-.24,1.464-.528,2.9-.864,4.368-.552.024-1.008.048-1.248.048-.888,0-3.36,0-3.624-.048h-.072a.127.127,0,0,0-.144.144.537.537,0,0,0,.072.24,1.113,1.113,0,0,1,.1.5,2.954,2.954,0,0,1-.048.48c0,.072-.024.12-.024.168,0,.12.048.216.168.216.048,0,.072-.024.12-.024.312-.072,2.808-.144,3.432-.144.144,0,.456,0,.888-.024A53.628,53.628,0,0,1,28.176-.12a1.976,1.976,0,0,0-.288.648c0,.12.072.216.288.216a10.845,10.845,0,0,1,2.208.312,3.04,3.04,0,0,0,.672.192c.216,0,.24-.168.408-.552a73.814,73.814,0,0,0,4.7-13.272c.72-.024,1.392-.024,1.92-.024,1.944,0,3.216.432,3.216,3.552,0,2.328-.48,5.592-1.488,6.864a3.008,3.008,0,0,1-2.472,1.2,8.508,8.508,0,0,1-2.592-.552c-.024,0-.048-.024-.072-.024-.312,0-.552.576-.552.96a.351.351,0,0,0,.1.288A7.709,7.709,0,0,0,38.616,1.08a4.739,4.739,0,0,0,3.6-1.416c1.416-1.608,2.16-4.728,2.16-7.944,0-3.456-.648-5.808-5.112-5.856-.7,0-1.68.024-2.712.048Zm5.136,1.512c-.24,0-.672.6-.672.936a.234.234,0,0,0,.1.216,12.013,12.013,0,0,1,5.232,6.48c.072.192.144.432.312.432.072,0,.192-.072.336-.312.408-.624,1.176-1.944,1.968-2.3.216-.1.288-.192.288-.288,0-.528-2.832-3.72-7.512-5.16ZM62.04,1.608c5.88-.888,9.744-3.192,9.816-8.952.024-.744.024-1.56.024-2.4s0-1.7-.024-2.544c1.1,0,3.576.1,3.864.144h.048a.152.152,0,0,0,.168-.168,2.13,2.13,0,0,0-.072-.336,2.7,2.7,0,0,1-.048-.48,2.475,2.475,0,0,1,.048-.48,1.594,1.594,0,0,0,.072-.36c0-.072-.024-.144-.12-.144h-.072a36.5,36.5,0,0,1-3.72.24h-.216c0-.216-.024-.432-.024-.648-.048-1.3-.072-3.312-.072-4.392,0-.336-.144-.336-.192-.336a.713.713,0,0,0-.288.048,11.689,11.689,0,0,1-2.448.48c-.48,0-.48.192-.48.36.072,1.032.168,2.76.216,3.984,0,.168.024.312.024.48-1.368,0-2.736.024-3.288.024-1.08,0-3.576-.168-3.84-.216a.469.469,0,0,0-.168-.024c-.12,0-.168.048-.168.144a2.622,2.622,0,0,0,.12.408,3,3,0,0,1,.048.5,2.941,2.941,0,0,1-.048.456,1.465,1.465,0,0,0-.072.312c0,.1.048.144.192.144h.1c.264-.048,3.48-.144,3.84-.144h3.336c.024.816.024,1.68.024,2.52s0,1.632-.024,2.376C68.52-2.9,66.384-.624,61.584.24c-.1.024-.12.12-.12.288,0,.384.24,1.08.552,1.08Zm-2.4-20.04c0-.168-.1-.216-.264-.216a1.076,1.076,0,0,0-.264.024c-.432.048-1.368.168-1.92.168H57c-.168-.024-.312-.072-.408-.072s-.144.048-.168.288a97.819,97.819,0,0,0-.816,12.192c0,2.04.1,4.1.264,6.12.024.36.048.48.24.48A1.269,1.269,0,0,0,56.5.5a8.026,8.026,0,0,1,1.416-.1,3.919,3.919,0,0,1,.6.024,2.237,2.237,0,0,0,.336.048c.24,0,.336-.1.336-.312a.6.6,0,0,0-.024-.192A47.4,47.4,0,0,1,58.7-6.912,69.937,69.937,0,0,1,59.64-18.36ZM73.9-19.464A17.823,17.823,0,0,1,74.952-15.6c.024.12.072.192.12.192.072,0,.12-.048.192-.12a2.87,2.87,0,0,1,1.224-.672c.216-.048.288-.12.288-.216s-1.8-3.48-2.232-3.48c-.24,0-.648.216-.648.384Zm-2.04.624a14.061,14.061,0,0,1,.768,3.888q.036.216.144.216c.048,0,.1-.048.168-.12a2.524,2.524,0,0,1,1.2-.552c.216-.048.312-.12.312-.24,0-.144-1.632-3.6-2.088-3.6-.216,0-.5.168-.5.36Zm29.064,6.264c.12,0,.168-.1.168-.216a1.2,1.2,0,0,0-.048-.288,2.114,2.114,0,0,1-.048-.408,2.758,2.758,0,0,1,.048-.5,2.161,2.161,0,0,0,.072-.384c0-.072-.024-.144-.12-.144h-.072c-.192.048-3.984.216-5.448.216h-1.8a18.021,18.021,0,0,1-2.064-4.248c-.168-.528-.24-.768-.432-.768-.1,0-.192.072-.36.168a6.515,6.515,0,0,1-2.352.936c-.216.024-.312.1-.312.216A35.37,35.37,0,0,0,90-14.3H87.5c-1.08,0-5.328-.12-5.592-.192a.357.357,0,0,0-.144-.024c-.12,0-.168.072-.168.144a2.511,2.511,0,0,0,.1.408,1.756,1.756,0,0,1,.072.528,1.255,1.255,0,0,1-.072.432,1.238,1.238,0,0,0-.048.264c0,.1.024.168.168.168h.1c.264-.048,5.232-.144,5.592-.144h3.408c3.024,5.04,5.64,7.32,6.024,7.32a.84.84,0,0,0,.5-.264,7.407,7.407,0,0,1,2.232-.984c.264-.12.384-.24.384-.36,0-.192-.288-.456-.864-.888a23.78,23.78,0,0,1-4.464-4.824h.5c1.032,0,5.376.12,5.664.144ZM97.848.768C98.184.7,98.184.5,98.184.24a7.306,7.306,0,0,1,.864-2.28.889.889,0,0,0,.1-.36c0-.1-.024-.144-.144-.144a.469.469,0,0,0-.168.024,37.205,37.205,0,0,1-7.2.888c-2.592,0-6.864-.744-6.864-3.1a3,3,0,0,1,1.992-2.52.225.225,0,0,0,.12-.216c0-.384-.456-1.1-.792-1.1-.144,0-3.48,1.272-3.48,4.3,0,3.456,4.152,5.52,9.624,5.52A32.848,32.848,0,0,0,97.848.768Zm28.8-10.248a.152.152,0,0,0,.168-.168,1.238,1.238,0,0,0-.048-.264,2.153,2.153,0,0,1-.048-.432,3.7,3.7,0,0,1,.048-.576,1.238,1.238,0,0,0,.048-.264c0-.1-.024-.168-.12-.168h-.048c-.192.048-3.672.216-5.136.216h-.24c-.24,0-.648-.024-1.1-.024-.024-1.3-.024-2.5-.024-3.432h1.44c1.056,0,5.064.12,5.352.144h.024a.152.152,0,0,0,.168-.168,1.238,1.238,0,0,0-.048-.264,1.255,1.255,0,0,1-.072-.432,1.756,1.756,0,0,1,.072-.528,1.465,1.465,0,0,0,.072-.312c0-.1-.048-.168-.144-.168h-.048c-.192.024-3.72.216-5.16.216h-1.68v-.216c0-.792.048-2.3.072-2.784,0-.12.024-.24.024-.312,0-.168-.048-.24-.192-.24a2.521,2.521,0,0,0-.312.048,17.709,17.709,0,0,1-2.352.24c-.384,0-.456.048-.456.216,0,.1.024.216.024.384.024.552.072,1.632.072,2.64v.024h-3.36c-1.1,0-4.968-.12-5.232-.192a.422.422,0,0,0-.144-.024c-.12,0-.168.048-.168.144a2.984,2.984,0,0,0,.1.384,3,3,0,0,1,.048.5,2.114,2.114,0,0,1-.048.408,1.021,1.021,0,0,0-.048.264.152.152,0,0,0,.168.168h.1c.264-.048,4.872-.144,5.232-.144H117l.024,3.456h-2.736c-1.1,0-4.968-.144-5.232-.192-.048,0-.1-.024-.144-.024a.152.152,0,0,0-.168.168,2.248,2.248,0,0,0,.1.384,2.025,2.025,0,0,1,.048.456,2.113,2.113,0,0,1-.048.408,1.2,1.2,0,0,0-.048.288c0,.1.024.168.168.168h.1c.264-.048,4.872-.144,5.232-.144h2.736V-5.88a18.026,18.026,0,0,0-3.048-.24c-2.328.024-5.64.912-5.64,3.744,0,2.472,2.952,3.864,5.784,3.864,3.408,0,5.64-1.7,6.024-4.872a12.538,12.538,0,0,1,5.616,4.3c.072.1.12.144.216.144s.192-.1.288-.36a2.481,2.481,0,0,1,.864-1.056c.168-.1.24-.192.24-.264,0-.408-3.024-3.1-7.176-4.464V-9.624h1.08c1.056,0,5.064.12,5.352.144Zm-9.624,5.136a3.36,3.36,0,0,1-3.408,3.408c-1.416,0-3.264-.5-3.264-1.872,0-1.272,1.7-1.872,3.744-1.872A13.88,13.88,0,0,1,117.024-4.344Zm34.392,2.208c-.24.024-.552.024-.864.024a34.007,34.007,0,0,1-3.84-.24,5.693,5.693,0,0,1-5.016-5.5c0-3.24,2.928-7.032,6.576-7.848a8.452,8.452,0,0,1,1.536-.12c1.1,0,2.448.1,3.576.192.144,0,.312.024.432.024.168,0,.288-.048.288-.24v-.1c-.072-.408-.792-.984-1.056-1.9a.354.354,0,0,0-.384-.264,4.989,4.989,0,0,0-.552.072,37.389,37.389,0,0,1-4.416.528c-3.312.072-5.832.072-8.28.072-3.768,0-4.776-.1-4.944-.12-.12,0-.192-.024-.288-.024-.168,0-.264.048-.264.216a1.056,1.056,0,0,0,.048.24,3.161,3.161,0,0,1,.1.816,2.337,2.337,0,0,1-.048.576.6.6,0,0,0-.024.192c0,.168.1.216.24.216a1.076,1.076,0,0,0,.264-.024c1.128-.168,4.176-.336,5.3-.36,1.824-.024,4.08-.1,5.592-.168-3.24,1.416-6.312,4.968-6.312,8.928,0,4.752,3.84,8.136,10.752,8.3.528,0,.624-.024.744-.72a9.05,9.05,0,0,1,1.248-2.184,1.268,1.268,0,0,0,.168-.432c0-.12-.1-.168-.36-.168Zm3.216-9.144c0-.24-2.52-3.576-3.072-3.576-.312,0-.816.264-.816.48a.088.088,0,0,0,.024.072,16.408,16.408,0,0,1,1.536,4.08c.024.12.072.192.168.192a.328.328,0,0,0,.24-.144,4.206,4.206,0,0,1,1.56-.84C154.536-11.112,154.632-11.184,154.632-11.28Zm-6.72-2.208a18.7,18.7,0,0,1,1.176,4.2c.024.144.1.192.168.192a.292.292,0,0,0,.24-.12,3.249,3.249,0,0,1,1.584-.72c.288-.048.384-.144.384-.24a17.022,17.022,0,0,0-2.5-3.72.386.386,0,0,0-.264-.072c-.336,0-.816.192-.816.408C147.888-13.536,147.912-13.512,147.912-13.488Z" transform="translate(792 1208)" fill="#ffad03"/>
  </g>
</svg>
