<svg xmlns="http://www.w3.org/2000/svg" width="815.36" height="180.34" viewBox="0 0 815.36 180.34">
  <path id="Path_30" data-name="Path 30" d="M88.5-106.05c-41.4,0-83.25,45-83.25,63.3,0,4.65,2.85,7.65,9,7.65,17.4,0,60.45-35.1,60.45-35.1a2.981,2.981,0,0,1,1.35-.9c.15,0,.15.3.15.3C68.85-58.5,54.9-38.25,40.35-17.1a28.373,28.373,0,0,1-3.45-.75c-3-8.55-8.85-14.25-17.7-14.25-3.15,0-4.5,1.05-4.5,2.55,0,3.45,7.05,9.3,19.5,12.6a40.525,40.525,0,0,1,1.65,6.45C13.65,21.75-8.1,54.9-8.1,64.35c0,3.3,1.5,4.8,4.05,4.8C7.5,69.15,39.3,37.95,39.3-2.4c0-2.1-.15-4.05-.3-6,1.5-2.25,3-4.5,4.65-6.75a90.771,90.771,0,0,0,9.45.45c7.8,0,11.25-1.2,12-1.5.45-.15.75-.45.75-.75a.8.8,0,0,0-.9-.9,9.794,9.794,0,0,0-1.65.3A44.93,44.93,0,0,1,52.35-16.2c-2.7,0-5.4-.15-7.8-.3,16.65-24,34.05-49.35,46.8-70.35,0,0,1.65-2.25,1.65-3,0-.6-.9-1.2-1.35-1.2a3.32,3.32,0,0,0-2.1.9c-12.9,18.45-57.15,52.5-74.4,52.5-4.5,0-6.6-2.1-6.6-5.55,0-15.75,41.85-59.4,79.5-59.4,4.65,0,5.4.75,6.45.75a2.288,2.288,0,0,0,2.25-1.5C96.75-105.6,91.5-106.05,88.5-106.05ZM36.6-1.2c0,35.85-29.85,67.65-39.3,67.65-1.8,0-2.85-1.2-2.85-3.6,0-6.9,19.2-34.95,42-67.8A31.353,31.353,0,0,1,36.6-1.2ZM18.75-30.15c7.05,0,12,4.5,14.85,11.55-10.65-3.15-16.2-8.55-16.2-10.65Q17.4-30.15,18.75-30.15ZM37.5-16.2a8.779,8.779,0,0,0,1.95.3L38.1-13.8ZM87.3.6c9.15,0,24-8.7,27.9-13.2l-1.5-1.65C108.75-9.6,98.4-2.4,91.05-2.4,87.75-2.4,87-3.75,87-5.25c0-5.1,9.15-15.45,9.6-16.35a1.617,1.617,0,0,0,.3-1.05c0-.6-.6-.6-1.95-.6-1.5,0-4.35,3.45-6.75,7.65C85.2-12.75,73.35-3,69.45-3a.8.8,0,0,1-.9-.9c0-5.55,10.35-15.6,10.35-16.65,0-.6-.6-1.8-1.5-1.8-1.95,0-13.05,14.4-13.05,20.55a2.649,2.649,0,0,0,3,2.85c3.45,0,14.85-8.7,18.15-11.25a19.052,19.052,0,0,0-1.65,6.9C83.85-1.05,84.75.6,87.3.6ZM117-2.55c-2.25,0-3.15-1.05-3.15-2.55,0-4.35,7.2-13.05,7.2-14.55a2.781,2.781,0,0,0-.3-1.05,1.132,1.132,0,0,0-1.05-.6c-2.1,0-9.9,11.1-9.9,17.55C109.8-1.2,111,.6,114.3.6c9.15,0,23.7-8.55,27.6-13.05l-1.5-1.65C135.45-9.15,124.35-2.55,117-2.55ZM131.85-39.3a1.48,1.48,0,0,0,1.35,1.5c1.65,0,3.6-2.7,3.6-4.2,0-.75-.3-1.35-1.05-1.35C133.95-43.35,131.85-40.8,131.85-39.3ZM145.2-.75c-4.65,0-6.45-1.8-6.45-4.2,0-5.7,9.6-15.15,15-15.15.75,0,1.05.3,1.05.75,0,.6-.45.9-.45,1.35a1.225,1.225,0,0,0,1.35,1.2c1.8,0,2.85-2.25,2.85-3.75,0-1.65-1.35-2.55-3-2.55-8.85,0-20.7,11.85-20.7,19.35,0,3.3,2.4,5.85,8.55,5.85,9.15,0,25.8-10.2,29.7-14.7l-1.5-1.65C166.65-9.3,151.95-.75,145.2-.75Zm23.55-1.5c-.15-2.55,8.7-17.25,19.95-33.9,22.05-17.1,47.4-42.15,47.4-53.7,0-2.4-1.5-2.7-2.7-2.7-13.8,0-69,83.55-69,92.1a2.412,2.412,0,0,0,2.25,1.95c10.35,0,28.05-33,39.9-33a2.848,2.848,0,0,1,2.55,3c0,9.15-10.8,12.3-14.55,13.35-2.7.9-4.8,1.05-5.25,1.5a1.834,1.834,0,0,0-.45,1.35c0,9.3,5.7,12.3,12.6,12.3,8.1,0,18-4.05,22.95-7.05a32.447,32.447,0,0,0,7.2-5.55l-1.5-1.65a42.893,42.893,0,0,1-7.2,5.55C219.45-6.6,210-3,202.65-3c-5.4,0-9.75-1.95-9.75-7.8,0-1.35.45-2.25,1.65-2.55,5.1-1.5,18.75-5.4,18.75-14.25a6.068,6.068,0,0,0-5.7-6C192.45-33.6,177.3-2.25,168.75-2.25ZM232.8-90c.45,0,.6.3.6.9,0,4.65-13.65,26.1-39.75,45.75C209.55-66.3,228-90,232.8-90ZM244.2-.75c-7.95,0-11.1-4.2-11.1-11.1v-1.5C253.8-29.1,297.6-77.1,297.6-90.9c0-2.4-1.35-3.75-4.35-3.75-22.5,0-63.9,57-63.9,83.55,0,8.1,3.75,13.2,13.05,13.2,9.15,0,24.3-10.2,28.2-14.7l-1.5-1.65C264.15-9.3,250.95-.75,244.2-.75Zm47.4-91.8A2.234,2.234,0,0,1,294.15-90c0,11.55-41.55,59.7-60.6,73.35C238.2-43.05,276.3-92.55,291.6-92.55ZM291-9.15c1.05-1.65,10.35-11.1,10.35-13.35,0-.9-.45-1.8-1.5-1.8-.9,0-2.1.9-3.75,2.7-2.7,3-19.05,17.55-27.15,17.55-1.05,0-1.65-.3-1.65-1.05,0-4.5,7.2-11.4,9.75-13.8.3-.3.75-.6.75-.9,0-.45-1.05-1.05-2.1-1.05-3.15,0-12.3,11.4-12.3,16.95,0,1.8,1.05,3,3.3,3,6.15,0,20.85-10.2,21.15-10.2.15,0,.3.15.3.45.15,0-3.15,5.1-3.3,5.25,0,0-5.4,7.05-12.9,16.65C239.85,30.9,214.2,48.9,214.2,61.2c0,2.55,1.5,4.35,5.4,4.35,10.8,0,38.1-30.9,56.1-54C286.05,5.25,297-.9,307.5-7.05a36.515,36.515,0,0,0,7.2-5.55l-1.5-1.65a50.939,50.939,0,0,1-8.4,6.3c-8.7,5.1-17.25,9.9-25.5,14.85C284.55,0,288.75-5.55,291-9.15Zm-73.05,69.3c0-10.5,22.65-26.85,50.25-43.95-15.9,20.1-38.55,46.65-46.5,46.65C219.15,62.85,217.95,61.95,217.95,60.15ZM343.23-1.8a1.4,1.4,0,0,1-1.56-1.56c0-3.72,7.56-12.84,19.44-12.84a22.18,22.18,0,0,1,2.76.12c.36,0,1.68,0,1.68-1.32,0-.6-.12-1.44-3.6-1.44-13.68,0-23.4,11.28-23.4,16.8,0,1.8.96,3,3.36,3,2.88,0,9.36-3.84,14.28-7.68V-6c0,3.36,1.56,6.36,5.64,6.36,7.32,0,18.96-6.84,22.08-10.44l-1.2-1.32c-4.08,4.08-12.84,9.24-18.72,9.24-3.36,0-5.76-1.68-5.88-6.24,2.52-2.16,4.32-4.2,4.32-5.04,0-.36-.24-.48-.84-.48-2.52,0-4.44,2.4-5.16,5.16C354.51-7.32,346.59-1.8,343.23-1.8Zm42.84-.36c-.24,0-.36-.24-.36-.48,0-2.4,5.88-9.96,5.88-11.52s-.6-2.04-1.44-2.04c-2.16,0-6.12,3.48-7.44,4.8-.96.84-1.68,1.56-2.64,2.28a3.166,3.166,0,0,0,1.56.48,1.719,1.719,0,0,0,1.2-.48c1.68-1.32,4.44-4.2,5.28-4.2.24.48-6.24,8.76-6.24,12.36,0,.96.48,1.68,1.8,1.68,3.36,0,17.76-8.88,17.52-8.28a11.851,11.851,0,0,0-1.32,4.44c0,2.76,2.04,3.84,4.92,3.84,7.8,0,20.64-7.2,23.76-10.8l-1.2-1.32C423.39-7.44,412.11-.96,406.23-.96c-1.92,0-3.12-.6-3.12-2.4,0-2.52,3.12-6.6,3.12-7.8,0-.48-.36-1.68-.96-1.68C404.19-12.84,388.59-2.16,386.07-2.16Zm63.96,0c-4.44,0-6-1.68-6-4.2,0-4.08,4.56-10.44,7.2-14.52,9.6-14.4,23.4-34.2,30-44.4,1.92-3,2.52-4.56,2.52-5.4,0-.48-.36-1.08-.84-1.08-.84,0-2.4,1.44-5.04,5.4-12.6,19.44-22.08,34.32-28.32,43.2C438.39-7.32,428.79-1.32,425.67-1.32c-1.2,0-1.68-.48-1.68-1.32,0-3.24,8.52-11.64,16.2-12.72,1.32-.24,1.8-.72,1.8-1.32A1.175,1.175,0,0,0,440.67-18c-12.72,2.64-19.08,11.64-19.08,16.32,0,1.68.84,2.76,2.52,2.76,5.88,0,18.84-12.84,18.6-12.12a20.37,20.37,0,0,0-1.44,6.24c0,2.88,1.56,5.16,6.6,5.16,7.32,0,18.96-6.84,22.08-10.44l-1.2-1.32C464.79-7.44,455.91-2.16,450.03-2.16ZM605.76-46.2c.45,0,.75-.15.75-.3,0-.45-1.05-1.35-1.95-1.35-4.2,0-8.4-.15-12.3-.45,23.85-10.35,41.7-31.65,41.7-45.15,0-7.2-5.1-12.3-17.1-12.3-55.95,0-116.1,87.45-116.1,105.3,0,2.1.75,3.15,2.4,3.15,9.3,0,54.3-56.7,54.3-69.9,0-.9-.3-1.5-.9-1.5-.3,0-1.05,0-1.35.6-9.75,21.3-42.3,67.5-51.3,67.5-.6,0-.9-.45-.9-1.2,0-11.7,62.4-102,113.4-102,8.55,0,12.15,4.05,12.15,10.05,0,13.2-17.4,35.55-40.5,45.15-13.35-1.35-23.85-3.6-27.15-3.6-5.55,0-8.1,1.8-8.1,3.9,0,2.85,4.5,6.15,12.15,6.15a67.312,67.312,0,0,0,23.7-4.65C593.61-46.35,599.31-46.2,605.76-46.2Zm-39.3,2.1c-7.05,0-10.8-2.4-10.8-4.2,0-1.05,1.5-1.95,4.5-1.95,4.8,0,12.15,1.95,24.15,3.15A55.042,55.042,0,0,1,566.46-44.1Zm28.8,29.85a18.829,18.829,0,0,1-13.2,5.7c-4.35,0-7.95-1.8-9.3-5.4a10.127,10.127,0,0,0,.3-2.1c0-1.8-1.5-5.25-3.45-5.25-.9,0-1.2,1.2-1.2,1.8a19.041,19.041,0,0,0,1.05,6.3c-1.65,5.85-8.4,12.45-13.2,12.45-1.5,0-2.1-.45-2.1-1.95,0-6.6,9.15-13.65,12.3-15.15a1.3,1.3,0,0,0,.45-.9,2.311,2.311,0,0,0-1.35-1.95c-10.95,7.05-15,13.8-15,18,0,2.7,1.65,4.35,4.5,4.35,6.6,0,13.05-5.85,16.2-11.7a12.732,12.732,0,0,0,9.9,4.35,22.727,22.727,0,0,0,15.6-6.9Zm14.1,13.5c-7.95,0-11.1-4.2-11.1-11.1v-1.5c20.7-15.75,64.5-63.75,64.5-77.55,0-2.4-1.35-3.75-4.35-3.75-22.5,0-63.9,57-63.9,83.55,0,8.1,3.75,13.2,13.05,13.2,9.15,0,24.3-10.2,28.2-14.7l-1.5-1.65C629.31-9.3,616.11-.75,609.36-.75Zm47.4-91.8A2.234,2.234,0,0,1,659.31-90c0,11.55-41.55,59.7-60.6,73.35C603.36-43.05,641.46-92.55,656.76-92.55Zm-19.05,90c-2.25,0-3.15-1.05-3.15-2.55,0-4.35,7.2-13.05,7.2-14.55a2.781,2.781,0,0,0-.3-1.05,1.132,1.132,0,0,0-1.05-.6c-2.1,0-9.9,11.1-9.9,17.55,0,2.55,1.2,4.35,4.5,4.35,9.15,0,23.7-8.55,27.6-13.05l-1.5-1.65C656.16-9.15,645.06-2.55,637.71-2.55ZM652.56-39.3a1.48,1.48,0,0,0,1.35,1.5c1.65,0,3.6-2.7,3.6-4.2,0-.75-.3-1.35-1.05-1.35C654.66-43.35,652.56-40.8,652.56-39.3ZM661.86.45c9.15,0,23.7-8.55,27.6-13.05l-1.5-1.65C683.01-9.3,669.36-1.8,662.01-1.8c-1.65,0-2.4-1.2-2.4-3.3,0-4.2,13.05-21.3,25.5-37.5,19.5.3,40.35.9,42.3,1.2,3.45,0,4.05-1.05,4.05-2.85,0-1.05-1.5-1.2-3-1.2,0,0-32.4-.3-40.95-.3,6.75-8.85,13.05-17.1,16.65-22.35a5.59,5.59,0,0,0,1.05-2.7,1.313,1.313,0,0,0-1.35-1.2c-.75,0-2.4.45-4.65,3.75-4.2,6.15-10.2,14.25-16.35,22.5,0,0-55.65-.45-60-.45,0,0-2.85,0-3.3,1.5,0,1.2,2.85,1.95,4.95,1.95,6.3,0,17.55-.15,31.05-.15,5.7,0,14.85.15,24.9.3-12,16.05-23.7,32.7-23.7,38.7C656.76-.75,659.01.45,661.86.45Zm30-1.2c-3.75,0-4.95-1.8-4.95-4.35,8.1-4.2,16.95-10.2,16.95-13.8,0-1.35-.75-2.55-2.85-2.55-5.7,0-18,8.25-18,16.95,0,4.2,3.75,6.6,7.05,6.6,9.15,0,24.3-10.2,28.2-14.7l-1.5-1.65C711.81-9.3,698.61-.75,691.86-.75Zm7.2-18c.75,0,1.2.3,1.2.9,0,2.4-5.25,6.6-12.9,10.35C688.86-12.6,694.41-18.75,699.06-18.75Zm31.8,18c-7.95,0-11.1-4.2-11.1-11.1v-1.5c20.7-15.75,64.5-63.75,64.5-77.55,0-2.4-1.35-3.75-4.35-3.75-22.5,0-63.9,57-63.9,83.55,0,8.1,3.75,13.2,13.05,13.2,9.15,0,24.3-10.2,28.2-14.7l-1.5-1.65C750.81-9.3,737.61-.75,730.86-.75Zm47.4-91.8A2.234,2.234,0,0,1,780.81-90c0,11.55-41.55,59.7-60.6,73.35C724.86-43.05,762.96-92.55,778.26-92.55Zm2.14,82.18c1.19-1.87,11.73-12.58,11.73-15.13,0-1.02-.51-2.04-1.7-2.04-1.02,0-2.38,1.02-4.25,3.06-3.06,3.4-21.59,19.89-30.77,19.89-1.19,0-1.87-.34-1.87-1.19,0-5.1,8.16-12.92,11.05-15.64.34-.34.85-.68.85-1.02,0-.51-1.19-1.19-2.38-1.19-3.57,0-13.94,12.92-13.94,19.21,0,2.04,1.19,3.4,3.74,3.4,6.97,0,23.63-11.56,23.97-11.56.17,0,.34.17.34.51.17,0-3.57,5.78-3.74,5.95,0,0-6.12,7.99-14.62,18.87-36.38,22.27-65.45,42.67-65.45,56.61,0,2.89,1.7,4.93,6.12,4.93,12.24,0,43.18-35.02,63.58-61.2C774.79,5.95,787.2-1.02,799.1-7.99a41.385,41.385,0,0,0,8.16-6.29l-1.7-1.87a57.73,57.73,0,0,1-9.52,7.14c-9.86,5.78-19.55,11.22-28.9,16.83C773.09,0,777.85-6.29,780.4-10.37ZM697.61,68.17c0-11.9,25.67-30.43,56.95-49.81-18.02,22.78-43.69,52.87-52.7,52.87C698.97,71.23,697.61,70.21,697.61,68.17Z" transform="translate(8.1 106.05)" fill="#fff" opacity="0.8"/>
</svg>
